<svg width="83" height="41" viewBox="0 0 83 41" fill="none" xmlns="http://www.w3.org/2000/svg">
<path d="M41.0509 16.4206H82.4609V32.837C82.4609 35.0756 80.6159 36.9206 78.3609 36.9206C76.1059 36.9206 74.2609 35.0756 74.2609 32.837V24.6206H66.0609V32.8206C66.0609 35.0756 64.2159 36.9206 61.9609 36.9206C59.7059 36.9206 57.8609 35.0756 57.8609 32.8206V24.6206H41.0509C40.0222 29.5872 37.1895 33.9963 33.1 36.9965C29.0105 39.9966 23.9543 41.3749 18.908 40.8652C13.8617 40.3555 9.18332 37.9939 5.7764 34.2365C2.36948 30.4791 0.475741 25.5926 0.460948 20.5206C0.455839 15.4368 2.3399 10.5325 5.74738 6.75968C9.15486 2.98686 13.8426 0.61475 18.9007 0.103834C23.9588 -0.407082 29.0262 0.979653 33.1194 3.99483C37.2125 7.01001 40.0393 11.4385 41.0509 16.4206ZM20.9609 32.8206C24.2231 32.8206 27.3517 31.5248 29.6584 29.2181C31.9651 26.9114 33.2609 23.7828 33.2609 20.5206C33.2609 17.2585 31.9651 14.1299 29.6584 11.8232C27.3517 9.51654 24.2231 8.22065 20.9609 8.22065C17.6988 8.22065 14.5702 9.51654 12.2635 11.8232C9.95684 14.1299 8.66095 17.2585 8.66095 20.5206C8.66095 23.7828 9.95684 26.9114 12.2635 29.2181C14.5702 31.5248 17.6988 32.8206 20.9609 32.8206Z" fill="white"/>
</svg>
