<svg width="16" height="14" viewBox="0 0 16 14" fill="none" xmlns="http://www.w3.org/2000/svg">
<path d="M8.72757 3.76758H0V13.1841H2.42917V10.1205H7.08382L9.20756 13.1841H11.9276L9.58573 10.1065C10.3131 9.99355 10.8367 9.7253 11.1567 9.30174C11.4767 8.87825 11.6367 8.20057 11.6367 7.29702V6.59116C11.6367 6.05466 11.5786 5.63114 11.4767 5.3064C11.3749 4.9817 11.2004 4.69935 10.9531 4.44523C10.6912 4.20523 10.4003 4.03582 10.0512 3.92287C9.70212 3.82405 9.26569 3.76758 8.72757 3.76758ZM8.33484 8.04526H2.42917V5.84287H8.33484C8.66937 5.84287 8.90209 5.89936 9.01848 5.99818C9.1348 6.09699 9.20756 6.28054 9.20756 6.54879V7.3394C9.20756 7.62177 9.1348 7.80527 9.01848 7.90408C8.90209 8.00289 8.66937 8.04526 8.33484 8.04526Z" fill="#292929"/>
<path d="M14.3557 3.29726C15.2635 3.29726 15.9998 2.55914 15.9998 1.64863C15.9998 0.738119 15.2635 0 14.3557 0C13.4473 0 12.7109 0.738119 12.7109 1.64863C12.7109 2.55914 13.4473 3.29726 14.3557 3.29726Z" fill="#F41240"/>
</svg>
