<svg width="114" height="54" viewBox="0 0 114 54" fill="none" xmlns="http://www.w3.org/2000/svg">
<g clip-path="url(#clip0_1594_378)">
<path d="M84.915 33.2405C84.7893 33.2956 84.6672 33.3587 84.5495 33.4295C84.3137 33.585 84.1061 33.774 83.8656 33.908C83.6648 34.0081 83.4513 34.0797 83.2313 34.1209C82.9506 34.1822 82.6662 34.2246 82.38 34.2477C81.7739 34.2956 81.2834 34.0085 80.8401 33.64C80.4453 33.3538 80.1445 32.9537 79.977 32.4917C79.7951 31.9848 79.7639 31.4349 79.8874 30.9102C80.0406 30.3265 80.1397 29.726 80.4463 29.202C80.9037 28.4149 81.3895 27.6421 81.8612 26.8694C82.163 26.3909 82.4884 25.9124 82.7785 25.4339C82.8008 25.3765 82.8097 25.3146 82.8044 25.2532C82.7991 25.1917 82.7797 25.1323 82.7478 25.0798C82.4153 24.6204 82.0734 24.1683 81.7126 23.7352C81.4532 23.426 81.1069 23.2044 80.7201 23.1001C80.3333 22.9958 79.9243 23.0137 79.5478 23.1515C78.7389 23.4745 77.9537 23.8692 77.1401 24.1635C76.5741 24.374 75.961 24.4673 75.3974 24.6635C75.1379 24.7742 74.8987 24.9287 74.69 25.1205C73.8599 25.7904 73.0392 26.4818 72.2186 27.1541C71.2753 27.9173 70.3462 28.6948 69.3723 29.4126C68.6648 29.9389 67.889 30.4317 66.9363 30.2643C66.6312 30.1881 66.3366 30.0739 66.0591 29.9245C65.4153 29.6279 65.1158 28.9987 65.2314 28.135C65.3054 27.4345 65.5129 26.7552 65.8421 26.1349C66.4079 25.1198 67.0859 24.1734 67.8631 23.3142C68.4432 22.6778 69.0233 22.039 69.6435 21.4433C70.9406 20.2141 72.3573 19.1216 73.8717 18.1823C74.3156 17.9517 74.7723 17.7472 75.2394 17.5699C76.2133 17.0914 77.1802 16.6129 78.1494 16.1344C79.187 15.6224 80.234 15.1224 81.2598 14.5817C81.715 14.3424 82.1182 14.0003 82.5639 13.7323C83.3539 13.2539 84.1557 12.2969 84.7641 11.6485C85.9927 10.3446 86.8062 9.13643 88.082 7.87799C88.9003 7.06934 89.8318 6.37313 90.7255 5.64343C91.7075 4.81752 92.7621 4.08475 93.876 3.45433C95.0693 2.80118 96.2342 2.09301 97.4416 1.47097C98.1484 1.12965 98.8772 0.837106 99.6229 0.595332C100.184 0.396757 100.767 0.260387 101.34 0.0976994C101.37 0.0976994 101.406 0.0713824 101.427 0.0833447C101.804 0.25321 102.134 0.00678585 102.493 -0.0195312C102.602 -0.0113202 102.71 0.00791443 102.816 0.0378879C102.816 0.0785597 102.832 0.116839 102.842 0.157511C102.687 0.281431 102.52 0.388862 102.344 0.478101C101.594 0.762804 100.821 0.985303 100.087 1.31068C99.1866 1.70304 98.307 2.15283 97.4416 2.63132C96.5761 3.10981 95.6352 3.63137 94.7839 4.21034C93.6749 4.93287 92.6123 5.72639 91.6028 6.58606C90.4567 7.60525 89.4262 8.76081 88.3532 9.86373C87.7354 10.5001 87.1364 11.1557 86.5256 11.7992C86.0328 12.3184 85.5658 12.8711 85.0305 13.3424C84.5065 13.7869 83.9509 14.1916 83.368 14.553C82.3587 15.1965 81.3329 15.8162 80.3024 16.4239C79.6893 16.7827 79.0219 17.0507 78.4347 17.4455C77.5785 17.9791 76.6745 18.4293 75.7346 18.79C75.1331 19.0656 74.5522 19.3855 73.9967 19.747C73.3977 20.1107 72.8176 20.5246 72.2351 20.905C71.0153 21.7019 69.9293 22.6922 69.0186 23.8381C68.4668 24.5176 67.8961 25.1851 67.3867 25.8956C66.9387 26.5248 66.5519 27.1995 66.1675 27.8718C66.0823 28.0485 66.0361 28.2419 66.032 28.4386C66.0279 28.6352 66.0661 28.8305 66.144 29.0106C66.1935 29.1518 66.467 29.2499 66.6557 29.2881C66.8813 29.302 67.1076 29.2826 67.3278 29.2307C67.537 29.2323 67.7448 29.195 67.9409 29.1207C68.4311 28.8423 68.9037 28.5331 69.3558 28.1948C70.2047 27.544 71.0419 26.8718 71.8649 26.1875C72.5558 25.6109 73.2279 25.0104 73.8905 24.4003C74.0533 24.252 74.1264 23.996 74.2749 23.8429C74.4235 23.6898 74.6758 23.4553 74.8715 23.4649C75.6497 23.5008 76.2864 23.1299 76.9609 22.8524C77.8499 22.4912 78.5574 21.838 79.3945 21.4002C79.6728 21.2566 79.9345 21.082 80.2152 20.9408C80.3779 20.88 80.5563 20.8772 80.7209 20.9328C80.8854 20.9885 81.0264 21.0993 81.1207 21.2471C81.4107 21.6418 81.8281 21.7949 82.2503 21.9648C82.9719 22.2447 83.6652 22.0246 84.3915 21.8978C84.9739 21.7949 85.0211 21.2925 85.2852 20.96C85.6435 20.4877 85.9735 19.994 86.2733 19.4814C86.6247 18.9096 86.9807 18.3354 87.2802 17.7373C87.8485 16.6033 88.3815 15.4525 89.221 14.486C89.4332 14.2467 89.6101 13.9668 89.8105 13.7108C89.8616 13.6357 89.9274 13.5722 90.0039 13.5242C90.0798 13.4966 90.1592 13.4805 90.2397 13.4764C90.2487 13.5567 90.2415 13.6381 90.2185 13.7156C89.9685 14.163 89.6856 14.5936 89.4568 15.053C89.1078 15.7492 88.7494 16.4478 88.4758 17.1727C88.2114 17.8379 88.0001 18.5235 87.8438 19.2231C87.6434 20.1298 87.2496 20.9552 86.9006 21.7973C86.6806 22.3503 86.3607 22.8566 85.9573 23.2902C85.5187 23.7496 85.1626 24.2903 84.7641 24.7903C84.0566 25.6827 83.3091 26.5488 82.6417 27.4675C82.0104 28.3242 81.5367 29.2895 81.2433 30.3169C81.1212 30.6777 81.042 31.052 81.0075 31.4318C80.9745 32.1735 81.3306 32.7022 81.9932 33.0371C82.7691 33.4319 83.394 33.1328 83.9717 32.6232C84.6923 31.9987 85.2756 31.2277 85.6837 30.36C85.8583 29.982 85.9431 29.5585 86.0941 29.1637C86.1531 28.9943 86.2556 28.844 86.3912 28.7283C87.3062 28.0465 88.0042 27.1565 88.7305 26.2928C89.2743 25.6622 89.7761 24.9957 90.2327 24.2975C90.5463 23.8046 90.7043 23.2185 90.959 22.6754C91.0885 22.3762 91.2831 22.1106 91.5281 21.8985C91.7731 21.6864 92.0623 21.5332 92.3739 21.4504C93.5266 21.1052 94.6202 20.5823 95.6164 19.9001C96.5148 19.2876 97.2482 18.5125 98.0028 17.7469C98.6513 17.089 99.0663 16.2923 99.5191 15.5099C99.8936 14.8447 100.34 14.2237 100.849 13.6582C101.403 13.0529 101.899 12.3854 102.5 11.8303C103.434 10.9667 104.515 10.2818 105.69 9.80871C106.683 9.40677 107.685 9.02637 108.69 8.65315C108.95 8.58229 109.214 8.52874 109.48 8.49285C109.901 8.41878 110.317 8.32134 110.727 8.20097C111.171 8.04785 111.586 7.80622 112.027 7.64353C112.357 7.52391 112.713 7.46649 113.055 7.38036L113.114 7.50716C112.72 7.83014 112.336 8.16509 111.935 8.46414C111.077 9.11489 110.19 9.72497 109.341 10.3973C108.876 10.7652 108.452 11.1849 108.079 11.6485C107.593 12.2962 107.269 13.054 107.136 13.8568C106.999 14.541 106.74 15.2013 106.544 15.8736C106.391 16.3976 106.28 16.9359 106.103 17.4502C105.82 18.2732 105.587 19.125 105.172 19.8858C104.53 21.0533 103.894 22.2495 102.969 23.2185C102.245 23.9482 101.484 24.639 100.689 25.2879C100.114 25.7335 99.647 26.3063 99.3234 26.9627C99.1824 27.3524 99.1144 27.7654 99.1229 28.1804C99.1017 28.8503 99.156 29.525 99.1395 30.1949C99.1206 30.9485 99.4389 31.5825 99.7408 32.2357C100.062 32.9296 100.346 33.6403 100.592 34.3649C100.727 34.7937 100.806 35.2384 100.828 35.688C100.852 35.9966 100.774 36.3045 100.608 36.564C100.442 36.8235 100.196 37.0202 99.9082 37.1235C99.5931 37.2263 99.2541 37.2263 98.939 37.1235C97.5241 36.6928 96.569 35.6736 95.7909 34.4726C95.4353 33.8828 95.1201 33.2689 94.8476 32.6352C94.7598 32.4056 94.7081 32.1634 94.6943 31.9175C94.5382 30.9791 94.273 30.0627 93.9043 29.1877C93.8265 28.9867 93.8407 28.7331 93.4964 28.6948C93.3993 28.9503 93.3205 29.2126 93.2605 29.4795C93.145 30.2403 92.9894 31.0083 93.2228 31.7763C93.3219 32.038 93.4077 32.3047 93.4799 32.5754C93.5836 33.1161 93.6567 33.664 93.7322 34.2094C93.8312 34.9272 93.876 35.6449 94.0317 36.3435C94.1283 36.7789 94.4019 37.1713 94.574 37.5924C94.8136 38.2204 94.8812 38.9024 94.7698 39.5662C94.7351 39.6804 94.6785 39.7866 94.6032 39.8786C94.5279 39.9705 94.4355 40.0465 94.3311 40.1021C93.7793 40.4155 93.1898 40.6428 92.5272 40.516C92.4181 40.498 92.3065 40.5029 92.1994 40.5303C91.9636 40.5901 91.789 40.6763 91.7796 40.9849C91.7631 41.6045 91.1052 42.2027 90.4991 42.2768C89.6125 42.3869 89.0253 41.9323 88.523 41.2935C87.8651 40.4562 87.1835 39.6355 86.5728 38.7623C85.9573 37.8955 85.4754 36.9387 85.1437 35.9248C84.9379 35.1889 84.8581 34.4225 84.9079 33.6592C84.9173 33.5491 84.915 33.4295 84.915 33.2405ZM96.536 24.9195V24.9506C96.3167 24.9506 96.0927 24.9674 95.8734 24.9506C95.78 24.9354 95.6842 24.9533 95.6022 25.0012C95.5202 25.0491 95.4569 25.1242 95.423 25.2138C95.2602 25.5648 95.0694 25.9017 94.8523 26.221C94.6012 26.5397 94.4415 26.9224 94.3907 27.3272C94.34 27.7319 94.4001 28.143 94.5646 28.5154C94.9629 29.4892 95.2715 30.4984 95.4867 31.5299C95.5356 31.8781 95.6316 32.2179 95.772 32.5395C96.1281 33.2357 96.529 33.9128 96.9346 34.5803C97.2369 35.1403 97.6825 35.6073 98.2245 35.932C98.5406 36.0749 98.8642 36.2003 99.1937 36.3076C99.2884 36.3285 99.3862 36.33 99.4815 36.312C99.5768 36.2939 99.6675 36.2567 99.7484 36.2025C99.8292 36.1483 99.8986 36.0783 99.9524 35.9965C100.006 35.9147 100.043 35.8228 100.061 35.7263C100.087 35.1521 99.8257 34.6544 99.6771 34.1257C99.4413 33.3099 98.998 32.6065 98.6513 31.8529C98.3598 31.3119 98.1945 30.7103 98.1679 30.0944C98.1679 29.7307 98.1207 29.3767 98.0995 29.001C98.0979 28.9202 98.1082 28.8396 98.1302 28.7618C98.1876 28.612 98.1911 28.4464 98.1403 28.2942C98.0894 28.1419 97.9873 28.0127 97.8519 27.9292C97.6694 27.7922 97.4996 27.6384 97.3449 27.4699C97.2783 27.4066 97.2258 27.3296 97.1907 27.2442C97.1557 27.1587 97.1389 27.0667 97.1416 26.9741C97.1443 26.8816 97.1663 26.7907 97.2062 26.7075C97.2462 26.6243 97.3031 26.5506 97.3732 26.4914C97.6302 26.2306 97.9156 25.9985 98.175 25.7425C98.2386 25.6803 98.3023 25.5033 98.2764 25.4841C98.128 25.3063 97.9406 25.1662 97.7293 25.075C97.3354 24.9962 96.9368 24.9443 96.536 24.9195ZM89.1385 32.4318C89.2682 32.6854 89.3979 32.9223 89.5134 33.1663C90.268 34.7597 90.9283 36.4081 91.9211 37.8675C92.2772 38.3867 92.6757 38.8747 93.0719 39.3604C93.1568 39.4633 93.3926 39.5877 93.435 39.5518C93.6402 39.3748 93.9232 39.169 93.9609 38.9369C94.0759 38.3438 93.9565 37.7286 93.6284 37.2239C93.211 36.5947 93.1356 35.8459 92.954 35.1353C92.8691 34.8076 92.8832 34.4511 92.7889 34.1281C92.572 33.384 92.2866 32.6591 92.0815 31.9103C91.9612 31.4653 91.8197 31.0179 91.9117 30.5203C92.0183 29.8821 92.0884 29.2383 92.1215 28.5919C92.1211 28.3501 92.0926 28.1092 92.0367 27.8742C91.9891 27.5877 91.8826 27.3146 91.7242 27.0727C91.5657 26.8307 91.3588 26.6253 91.117 26.4698C90.9731 26.9124 90.8104 27.2976 90.7208 27.6995C90.5722 28.367 90.459 29.0465 90.3482 29.7236C90.1902 30.738 89.9025 31.695 89.1385 32.4318ZM91.1453 40.0088C91.0698 39.8078 90.992 39.5446 90.8764 39.291C90.6548 38.8125 90.393 38.3508 90.1808 37.8556C89.8648 37.1378 89.6101 36.3938 89.2705 35.688C88.9748 35.111 88.6465 34.5518 88.2872 34.0133C88.1754 33.8245 88.021 33.6655 87.8368 33.5491C87.4774 33.3519 87.1046 33.1808 86.7213 33.0371C86.6682 33.0245 86.6129 33.0239 86.5595 33.0355C86.5061 33.0471 86.4559 33.0705 86.4124 33.1041C86.0498 33.424 85.8067 33.8608 85.7238 34.341C85.643 34.8142 85.7379 35.3009 85.9903 35.7071C86.4289 36.4584 86.8345 37.2359 87.318 37.956C87.7236 38.5637 88.2188 39.1116 88.6786 39.6834C89.0842 40.1906 89.4804 40.705 89.9072 41.1954C90.169 41.4945 90.8363 41.327 90.9472 40.9418C91.025 40.6715 91.0722 40.3844 91.15 40.0088H91.1453Z" fill="black"/>
<path d="M0 44.9997C0.150923 44.7461 0.311278 44.4949 0.45041 44.2341C1.0541 43.1096 1.67666 41.9947 2.24262 40.8487C2.73838 39.8429 3.30502 38.8746 3.93814 37.9515C4.88141 36.583 5.7728 35.1666 6.76794 33.834C7.50934 32.879 8.41541 32.0684 9.44211 31.4416C10.0267 31.1043 10.6653 30.8743 11.3286 30.7621C11.7578 30.664 12.1729 30.4965 12.5997 30.3769C13.1091 30.2358 13.6279 30.1233 14.1372 29.9774C15.0239 29.7214 15.9035 29.4486 16.7902 29.1903C17.7193 28.9151 18.6508 28.6496 19.5822 28.3744C20.476 28.1113 21.3721 27.8457 22.2611 27.5706C22.8789 27.3768 23.4897 27.1638 24.1028 26.9581C24.94 26.6758 25.7771 26.3983 26.6119 26.1112C27.0836 25.9485 27.5552 25.769 28.0103 25.6064C28.5598 25.4173 29.1163 25.2451 29.661 25.0537C30.3048 24.8144 30.9439 24.5752 31.59 24.3575C31.9968 24.1977 32.4166 24.0744 32.8446 23.989C33.4836 23.891 34.1321 23.8646 34.7783 23.8168C35.3264 23.8086 35.8689 23.9299 36.363 24.1709C37.7865 24.7854 39.3387 25.0296 40.8788 24.8814C41.5721 24.8073 42.2725 24.7594 42.954 24.6207C43.7428 24.4293 44.5537 24.3488 45.3641 24.3814C45.8044 24.4286 46.2394 24.5175 46.6634 24.647C47.3001 24.8192 47.9392 24.9939 48.55 25.214C49.2674 25.4314 49.9498 25.7538 50.5756 26.171C51.5189 26.8696 52.4622 27.573 53.4054 28.2716C53.8299 28.5874 54.2732 28.8816 54.6836 29.2118C55.0939 29.542 55.4382 29.8865 55.8178 30.219C56.4121 30.7406 56.9969 31.2645 57.6077 31.7765C58.2786 32.3194 58.8277 33.0013 59.2183 33.7766C59.3026 33.9407 59.3512 34.1212 59.3606 34.306C59.3701 34.4907 59.3403 34.6754 59.2731 34.8474C59.206 35.0194 59.1032 35.1748 58.9717 35.3029C58.8402 35.4311 58.683 35.529 58.5109 35.5901C57.919 35.7958 57.2788 35.81 56.6786 35.6308C56.4428 35.571 56.1904 35.5542 55.9499 35.4992C55.2041 35.31 54.5011 34.977 53.8794 34.5183C53.8608 34.5014 53.8379 34.4901 53.8133 34.4859C53.7886 34.4816 53.7633 34.4846 53.7403 34.4944C53.8121 34.6047 53.8908 34.7102 53.9761 34.8102C54.5293 35.3823 54.9604 36.064 55.2424 36.8127C55.4524 37.4345 55.7667 38.0148 56.1716 38.528C56.6895 39.1103 57.1281 39.7605 57.4756 40.4612C57.6887 40.871 57.8187 41.3201 57.8577 41.7818C57.8765 42.4708 57.3742 42.8704 56.9144 43.0642C56.7045 43.1503 56.497 43.2436 56.2824 43.3034C56.1135 43.3636 55.9374 43.4006 55.7589 43.4135C55.5806 43.407 55.4031 43.3854 55.2283 43.3489C55.1198 43.6025 55.0208 43.8537 54.9029 44.0977C54.7869 44.3615 54.5953 44.5836 54.353 44.7351C54.1106 44.8867 53.8289 44.9605 53.5446 44.947C52.5471 44.947 51.7217 44.5451 50.9506 43.9063C50.1181 43.2077 49.4673 42.3464 48.7386 41.5545C48.3094 41.076 47.9156 40.5975 47.4841 40.119C46.9942 39.6189 46.3822 39.2598 45.7107 39.0783C45.0033 38.8654 44.2958 38.6381 43.5884 38.4276C43.3997 38.3725 43.2016 38.351 42.9446 38.3032C43.145 38.5219 43.3332 38.752 43.5082 38.9922C43.6571 39.2101 43.7761 39.4475 43.8619 39.698C43.8985 39.8015 43.9613 39.8935 44.0441 39.9645C44.127 40.0355 44.2268 40.083 44.3336 40.1023C45.9112 40.5066 47.0266 41.5569 48.083 42.734C48.4593 43.122 48.6738 43.642 48.682 44.1862C48.6675 44.7328 48.5465 45.2711 48.3259 45.77C48.083 46.3159 47.7594 46.821 47.3662 47.2677C47.1303 47.5405 46.7224 47.6768 46.371 47.8323C46.1104 47.9214 45.843 47.9887 45.5716 48.0333C45.5716 48.2008 45.5716 48.3706 45.5716 48.5429C45.6023 49.2606 45.3216 49.5453 44.5812 49.8635C43.5318 50.3157 42.4989 49.6865 41.8834 48.952C41.406 48.3297 41.0826 47.6003 40.9402 46.8251C40.8918 46.5764 40.7669 46.3497 40.5834 46.1777C40.3999 46.0057 40.1672 45.8973 39.9191 45.8681C39.3342 45.7557 38.7541 45.6289 38.174 45.4901C37.5939 45.3514 36.9666 45.1791 36.3535 45.1025C35.8143 45.0495 35.2717 45.0407 34.7311 45.0762C34.0519 45.1001 33.3704 45.1289 32.6984 45.2102C31.5314 45.3336 30.3974 45.6768 29.3545 46.2222C28.479 46.7033 27.5162 46.9988 26.5247 47.0907C25.9477 47.1401 25.37 47.1768 24.7914 47.2007C23.9579 47.2213 23.1417 46.9576 22.4733 46.4519C21.7517 45.9351 20.9877 45.4566 20.2567 44.9518C20.101 44.8465 19.9737 44.6934 19.8157 44.5953C19.774 44.576 19.7281 44.5676 19.6824 44.571C19.6367 44.5743 19.5925 44.5893 19.5539 44.6145C19.1719 45.1934 18.8229 45.7964 18.4338 46.3705C17.4481 47.8252 16.4152 49.2415 15.604 50.8205C15.3878 51.3072 15.1981 51.8056 15.0357 52.3134C14.8588 52.7728 14.6796 53.2321 14.4909 53.6891C14.4603 53.7633 14.3778 53.8159 14.2551 53.8637C14.2551 53.6891 14.2669 53.5097 14.2551 53.335C14.1952 53.0528 14.166 52.7648 14.1679 52.4761C14.2881 51.6483 14.4532 50.8277 14.6112 50.0071C14.7032 49.5286 14.8022 49.0501 14.9319 48.5979C15.1088 47.9591 15.3092 47.3275 15.5191 46.6983C15.8233 45.7916 16.1605 44.8968 16.2454 43.9326C16.269 43.6623 16.3539 43.3943 16.3563 43.1264C16.3526 42.9637 16.2906 42.808 16.1817 42.6885C15.4508 41.9138 14.606 41.2584 13.6774 40.7459C13.4628 40.631 13.2364 40.5305 13.0336 40.3966C12.9361 40.3096 12.8505 40.2098 12.7789 40.0999C12.8835 40.0071 12.9982 39.9268 13.1208 39.8607C13.2823 39.785 13.4572 39.7435 13.6349 39.7386C14.0413 39.7558 14.4453 39.8094 14.8423 39.8989C15.3139 40.0162 15.7691 40.2219 16.2383 40.3559C17.4256 40.6855 18.5349 41.2551 19.4997 42.0306C20.8134 43.1126 22.2197 44.0734 23.7019 44.9016C24.2539 45.1801 24.8217 45.4254 25.4022 45.6361C25.5356 45.6823 25.6785 45.693 25.8172 45.6672C26.8077 45.5021 27.7934 45.337 28.6682 44.7604C29.1576 44.4554 29.6749 44.199 30.2128 43.9948C30.9496 43.7086 31.7353 43.5744 32.5239 43.6001C33.0356 43.6001 33.5497 43.5881 34.059 43.6288C34.4481 43.6623 34.8325 43.7723 35.2216 43.8393C35.8206 43.9422 36.4195 44.0355 37.0162 44.1384C37.2803 44.1838 37.542 44.246 37.8085 44.2915C38.2943 44.3776 38.7872 44.4374 39.2682 44.5475C39.7705 44.6594 40.2658 44.8016 40.7515 44.9733C41.2774 45.1647 41.7891 45.3992 42.2985 45.6313C42.8644 45.892 43.4209 46.1744 43.9846 46.4423C44.6742 46.7437 45.4463 46.7894 46.1659 46.5715C46.4536 46.4997 46.7318 46.3897 47.0195 46.3155C47.5737 46.1672 47.6468 45.5978 47.6067 45.1432C47.5454 44.4255 47.1068 43.947 46.6163 43.4852C45.8968 42.7949 45.0767 42.2211 44.185 41.7842C43.5719 41.4923 42.9022 41.3248 42.2654 41.0832C41.6838 40.8365 41.0515 40.7379 40.4237 40.7961C39.7375 40.8798 39.1314 40.5999 38.5207 40.3774C37.9099 40.1549 37.2732 39.887 36.6695 39.5975C35.6775 39.119 34.6926 38.6269 33.7147 38.1213C33.2289 37.8677 32.7856 37.5256 32.2998 37.2888C31.8437 37.0819 31.3701 36.9169 30.8849 36.7959C30.5524 36.705 30.1963 36.7074 29.852 36.6476C29.6903 36.6079 29.5325 36.5534 29.3804 36.4849C29.3167 36.461 29.2602 36.4203 29.1988 36.3916C29.1375 36.3629 29.0055 36.3031 28.9088 36.2576C28.9883 36.162 29.0786 36.0761 29.1776 36.0016C29.977 35.5231 30.8661 35.4705 31.7409 35.6236C32.5652 35.7726 33.401 35.847 34.2382 35.8461C34.3878 35.8192 34.5237 35.7406 34.6226 35.6236C35.0209 35.1487 35.3115 34.5909 35.4739 33.9895C35.6178 33.5685 35.9456 33.5278 36.2521 33.4704C36.8523 33.3502 37.4597 33.2703 38.0703 33.2311C38.6275 33.2005 39.1697 33.0365 39.6526 32.7526C40.169 32.4608 40.7114 32.1928 41.025 31.6282C41.1124 31.5103 41.2335 31.4226 41.3717 31.377C41.7202 31.2137 42.111 31.1676 42.4871 31.2454C42.8917 31.2958 43.3023 31.2516 43.6874 31.1162C44.2792 30.9437 44.8597 30.7336 45.4254 30.487C45.6826 30.3649 45.914 30.1935 46.1069 29.9822C46.1828 29.8897 46.2769 29.8144 46.3833 29.7612C46.4896 29.708 46.6058 29.678 46.7243 29.6733C46.8428 29.6686 46.961 29.6891 47.0712 29.7337C47.1813 29.7782 47.281 29.8458 47.3638 29.9319C48.0571 30.6497 48.9178 31.1162 49.7786 31.5755C50.4271 31.9225 51.085 32.2478 51.7429 32.5708C52.2381 32.8101 52.7499 33.0158 53.238 33.2718C53.7261 33.5278 54.2473 33.8436 54.7378 34.1546C55.516 34.6475 56.372 34.6905 57.2563 34.6762C57.6528 34.6565 58.0299 34.4965 58.3222 34.224C58.459 34.1116 58.5415 34.0039 58.3835 33.7981C57.8836 33.157 57.4403 32.4943 56.7187 32.0421C56.1338 31.6736 55.6669 31.1162 55.108 30.6999C53.4573 29.4678 51.8797 28.14 49.9837 27.2906C48.9744 26.8409 47.9911 26.3337 46.9676 25.915C46.4413 25.747 45.8977 25.641 45.3476 25.5992C44.8533 25.5239 44.3546 25.4831 43.8549 25.4772C43.3353 25.4795 42.8164 25.5131 42.3008 25.5776C41.815 25.6351 41.3387 25.7714 40.8529 25.8169C40.4141 25.8623 39.972 25.8671 39.5323 25.8312C39.0759 25.786 38.6234 25.7061 38.1787 25.592C37.7071 25.4748 37.2543 25.2905 36.7827 25.1733C36.1436 25.0178 35.4975 24.8623 34.8301 24.9939C34.7426 25.016 34.6535 25.0312 34.5637 25.0393C33.9267 25.0565 33.2938 25.1472 32.6771 25.3097C32.1298 25.4266 31.5962 25.6023 31.0854 25.8336C30.5642 26.0992 30.036 26.3552 29.4912 26.5705C28.673 26.8935 27.8405 27.1734 27.0152 27.482C26.2535 27.7667 25.5036 28.0873 24.7348 28.3505C24.1877 28.5347 23.6194 28.652 23.0605 28.7931C22.3955 28.9582 21.7329 29.1257 21.0632 29.2716C20.4595 29.4008 19.844 29.4821 19.2403 29.6137C18.3371 29.8123 17.4387 30.0372 16.5378 30.2453C15.7573 30.4272 14.9697 30.5899 14.1797 30.7789C13.609 30.9176 13.043 31.0803 12.4747 31.2358C12.2672 31.2908 12.0667 31.3746 11.8569 31.42C10.7981 31.6449 10.0906 32.4081 9.32891 33.0948C8.47761 33.8675 7.91401 34.8437 7.35041 35.8341C6.35398 37.5496 5.16025 39.139 3.79429 40.5688C2.8298 41.6287 1.82758 42.6838 1.08004 43.9494C0.870573 44.2839 0.638939 44.6037 0.38674 44.9064C0.296888 44.9898 0.194114 45.0577 0.0825359 45.1073L0 44.9997ZM44.2416 33.6618C44.3171 33.724 44.376 33.8101 44.4491 33.8269C44.7929 33.9261 45.1464 33.9862 45.5032 34.0063C46.3985 34.0082 47.2653 34.3253 47.9557 34.9035C48.7457 35.5088 49.5215 36.138 50.3139 36.7337C51.0216 37.2543 51.6392 37.8906 52.1415 38.6166C52.5989 39.2841 53.0093 39.9851 53.4432 40.6693C53.5099 40.8003 53.5967 40.9198 53.7002 41.0234C53.9926 41.2674 54.2952 41.4963 54.6081 41.71C54.7804 41.8244 54.9689 41.9115 55.167 41.9684C55.4335 42.0498 55.7377 42.0378 55.9782 42.1598C56.2588 42.3057 56.3862 42.1263 56.5725 42.0139C56.6724 41.9576 56.7562 41.876 56.8157 41.777C56.8752 41.6781 56.9084 41.5651 56.912 41.4492C56.9686 40.7937 56.5748 40.375 56.1668 39.9803C55.5735 39.4534 55.0748 38.8261 54.693 38.1261C54.5039 37.6963 54.2864 37.2798 54.0421 36.8796C53.3198 35.8651 52.4903 34.9337 51.5684 34.102C51.3798 33.9249 51.2218 33.8077 50.9742 33.968C50.9199 34.0039 50.8374 33.9872 50.7666 33.9919C50.2037 34.0033 49.6513 33.836 49.1867 33.5134C48.5877 33.1498 47.9887 32.9464 47.2671 33.1689C46.7072 33.3094 46.1383 33.4102 45.5645 33.4704C45.1353 33.5422 44.7014 33.5972 44.2416 33.6618ZM49.3352 37.3414C49.1984 38.2368 49.2794 39.1526 49.5711 40.009C49.8069 40.6693 50.0238 41.3488 50.5544 41.8966C51.3798 42.746 52.1839 43.5714 53.3842 43.825C53.7615 43.9039 54.0563 43.7197 53.962 43.368C53.8571 42.9424 53.6986 42.5323 53.4903 42.1478C53.2266 41.7577 52.9433 41.3816 52.6414 41.021C51.8538 39.9229 51.0897 38.8056 50.0474 37.9323C49.8352 37.7433 49.6041 37.5615 49.3352 37.3414ZM41.9966 46.7581C42.0408 47.014 42.099 47.2672 42.1711 47.5165C42.3268 47.952 42.4282 48.4616 42.9069 48.6506C43.317 48.8045 43.745 48.9042 44.1803 48.9472C44.8429 49.0214 44.8311 48.9305 44.7368 48.2295C44.72 48.1592 44.6892 48.0932 44.6462 48.0356C44.6032 47.978 44.5489 47.93 44.4868 47.8945C44.1991 47.7414 43.8808 47.6553 43.5837 47.5094C43.0814 47.2821 42.5838 47.038 41.9966 46.7581Z" fill="black"/>
</g>
<defs>
<clipPath id="clip0_1594_378">
<rect width="113.114" height="53.8639" fill="white"/>
</clipPath>
</defs>
</svg>
