<svg width="101" height="47" viewBox="0 0 101 47" fill="none" xmlns="http://www.w3.org/2000/svg">
<path d="M17.9677 13.1915C17.3597 13.1915 16.7957 13.0795 16.2757 12.8555C15.7557 12.6315 15.3037 12.3195 14.9197 11.9195C14.5437 11.5115 14.2477 11.0355 14.0317 10.4915C13.8237 9.94754 13.7197 9.35154 13.7197 8.70354C13.7197 8.06354 13.8237 7.47154 14.0317 6.92754C14.2477 6.38354 14.5437 5.91154 14.9197 5.51154C15.3037 5.10354 15.7557 4.78754 16.2757 4.56354C16.7957 4.33954 17.3597 4.22754 17.9677 4.22754C18.5837 4.22754 19.1477 4.33954 19.6597 4.56354C20.1797 4.78754 20.6277 5.10354 21.0037 5.51154C21.3877 5.91154 21.6837 6.38354 21.8917 6.92754C22.1077 7.47154 22.2157 8.06354 22.2157 8.70354C22.2157 9.35154 22.1077 9.94754 21.8917 10.4915C21.6837 11.0355 21.3877 11.5115 21.0037 11.9195C20.6277 12.3195 20.1797 12.6315 19.6597 12.8555C19.1477 13.0795 18.5837 13.1915 17.9677 13.1915ZM17.9677 12.0755C18.5437 12.0755 19.0517 11.9315 19.4917 11.6435C19.9397 11.3475 20.2877 10.9475 20.5357 10.4435C20.7917 9.93154 20.9197 9.35154 20.9197 8.70354C20.9197 8.04754 20.7917 7.46754 20.5357 6.96354C20.2877 6.45954 19.9397 6.06354 19.4917 5.77554C19.0517 5.48754 18.5437 5.34354 17.9677 5.34354C17.3917 5.34354 16.8797 5.48754 16.4317 5.77554C15.9917 6.06354 15.6437 6.45954 15.3877 6.96354C15.1397 7.46754 15.0157 8.04754 15.0157 8.70354C15.0157 9.35154 15.1397 9.93154 15.3877 10.4435C15.6437 10.9475 15.9917 11.3475 16.4317 11.6435C16.8797 11.9315 17.3917 12.0755 17.9677 12.0755Z" fill="black"/>
<path d="M26.5132 13.1915C25.5612 13.1915 24.8292 12.8315 24.3172 12.1115C23.8132 11.3835 23.5612 10.3355 23.5612 8.96754C23.5612 7.65554 23.7692 6.66354 24.1852 5.99154C24.6092 5.31954 25.2812 4.91154 26.2012 4.76754L28.6972 4.35954L28.8652 5.40354L26.3812 5.83554C25.9972 5.89954 25.6852 6.02754 25.4452 6.21954C25.2132 6.40354 25.0372 6.67554 24.9172 7.03554C24.7972 7.38754 24.7172 7.85554 24.6772 8.43954C24.8852 8.07154 25.1772 7.78354 25.5532 7.57554C25.9292 7.35954 26.3532 7.25154 26.8252 7.25154C27.3452 7.25154 27.7972 7.37154 28.1812 7.61154C28.5652 7.84354 28.8612 8.17554 29.0692 8.60754C29.2852 9.03954 29.3932 9.54354 29.3932 10.1195C29.3932 10.7355 29.2732 11.2755 29.0332 11.7395C28.7932 12.2035 28.4572 12.5635 28.0252 12.8195C27.6012 13.0675 27.0972 13.1915 26.5132 13.1915ZM26.4772 12.1595C26.9972 12.1595 27.4012 11.9795 27.6892 11.6195C27.9852 11.2595 28.1332 10.7755 28.1332 10.1675C28.1332 9.55954 27.9972 9.09154 27.7252 8.76354C27.4532 8.43554 27.0692 8.27154 26.5732 8.27154C26.1652 8.27154 25.8052 8.39154 25.4932 8.63154C25.1892 8.86354 24.9612 9.17954 24.8092 9.57954C24.8252 10.3875 24.9612 11.0195 25.2172 11.4755C25.4732 11.9315 25.8932 12.1595 26.4772 12.1595Z" fill="black"/>
<path d="M31.3921 12.9995V8.03154H30.0721V7.03554H32.5921V9.09954H34.1401C34.8041 9.09954 35.3321 9.27554 35.7241 9.62754C36.1241 9.97154 36.3241 10.4395 36.3241 11.0315C36.3241 11.4155 36.2321 11.7555 36.0481 12.0515C35.8641 12.3475 35.6081 12.5795 35.2801 12.7475C34.9521 12.9155 34.5721 12.9995 34.1401 12.9995H31.3921ZM34.0921 10.0835H32.5921V12.0275H34.0921C34.4121 12.0275 34.6601 11.9435 34.8361 11.7755C35.0201 11.5995 35.1121 11.3555 35.1121 11.0435C35.1121 10.7395 35.0201 10.5035 34.8361 10.3355C34.6601 10.1675 34.4121 10.0835 34.0921 10.0835Z" fill="black"/>
<path d="M42.0395 11.2475L42.7475 12.0035C42.4355 12.3955 42.0635 12.6915 41.6315 12.8915C41.2075 13.0915 40.7435 13.1915 40.2395 13.1915C39.6155 13.1915 39.0675 13.0555 38.5955 12.7835C38.1315 12.5115 37.7675 12.1355 37.5035 11.6555C37.2395 11.1755 37.1075 10.6315 37.1075 10.0235C37.1075 9.41554 37.2355 8.87154 37.4915 8.39154C37.7475 7.91154 38.0995 7.53554 38.5475 7.26354C38.9955 6.98354 39.4995 6.84354 40.0595 6.84354C40.6035 6.84354 41.0835 6.97954 41.4995 7.25154C41.9155 7.51554 42.2395 7.88354 42.4715 8.35554C42.7115 8.82754 42.8315 9.36754 42.8315 9.97554V10.4075H38.3675C38.4395 10.9515 38.6435 11.3875 38.9795 11.7155C39.3155 12.0355 39.7555 12.1955 40.2995 12.1955C41.0195 12.1955 41.5995 11.8795 42.0395 11.2475ZM40.0475 7.83954C39.5995 7.83954 39.2235 7.99554 38.9195 8.30754C38.6235 8.61154 38.4435 9.02354 38.3795 9.54354H41.6195C41.5715 9.01554 41.4075 8.59954 41.1275 8.29554C40.8555 7.99154 40.4955 7.83954 40.0475 7.83954Z" fill="black"/>
<path d="M43.5896 14.5835V12.0035H44.0816C44.2896 12.0035 44.4376 11.9235 44.5256 11.7635C44.6136 11.6035 44.6816 11.2915 44.7296 10.8275L45.1256 7.03554H49.2536V12.0035H50.0696V14.5835H48.9416V12.9995H44.7296V14.5835H43.5896ZM45.8696 10.9115C45.8216 11.3915 45.7216 11.7555 45.5696 12.0035H48.0656V8.01954H46.2056L45.8696 10.9115Z" fill="black"/>
<path d="M51.4829 12.9995V7.03554H52.6469V11.2355L55.7189 7.03554H56.7749V12.9995H55.5989V8.82354L52.5389 12.9995H51.4829Z" fill="black"/>
<path d="M58.6665 12.9995V7.03554H59.8665V9.37554H62.7105V7.03554H63.9105V12.9995H62.7105V10.3595H59.8665V12.9995H58.6665Z" fill="black"/>
<path d="M70.3872 11.2475L71.0952 12.0035C70.7832 12.3955 70.4112 12.6915 69.9792 12.8915C69.5552 13.0915 69.0912 13.1915 68.5872 13.1915C67.9632 13.1915 67.4152 13.0555 66.9432 12.7835C66.4792 12.5115 66.1152 12.1355 65.8512 11.6555C65.5872 11.1755 65.4552 10.6315 65.4552 10.0235C65.4552 9.41554 65.5832 8.87154 65.8392 8.39154C66.0952 7.91154 66.4472 7.53554 66.8952 7.26354C67.3432 6.98354 67.8472 6.84354 68.4072 6.84354C68.9512 6.84354 69.4312 6.97954 69.8472 7.25154C70.2632 7.51554 70.5872 7.88354 70.8192 8.35554C71.0592 8.82754 71.1792 9.36754 71.1792 9.97554V10.4075H66.7152C66.7872 10.9515 66.9912 11.3875 67.3272 11.7155C67.6632 12.0355 68.1032 12.1955 68.6472 12.1955C69.3672 12.1955 69.9472 11.8795 70.3872 11.2475ZM68.3952 7.83954C67.9472 7.83954 67.5712 7.99554 67.2672 8.30754C66.9712 8.61154 66.7912 9.02354 66.7272 9.54354H69.9672C69.9192 9.01554 69.7552 8.59954 69.4752 8.29554C69.2032 7.99154 68.8432 7.83954 68.3952 7.83954Z" fill="black"/>
<path d="M72.7407 12.9995V7.03554H73.9407V9.37554H76.7847V7.03554H77.9847V12.9995H76.7847V10.3595H73.9407V12.9995H72.7407Z" fill="black"/>
<path d="M79.8774 12.9995V7.03554H81.0774V9.37554H83.9214V7.03554H85.1214V12.9995H83.9214V10.3595H81.0774V12.9995H79.8774Z" fill="black"/>
<path d="M87.0141 12.9995V7.03554H88.2141V9.09954H89.5941C90.2501 9.09954 90.7741 9.27954 91.1661 9.63954C91.5661 9.99154 91.7661 10.4555 91.7661 11.0315C91.7661 11.4075 91.6741 11.7475 91.4901 12.0515C91.3061 12.3475 91.0501 12.5795 90.7221 12.7475C90.3941 12.9155 90.0181 12.9995 89.5941 12.9995H87.0141ZM92.4861 12.9995V7.03554H93.6861V12.9995H92.4861ZM89.5461 10.0835H88.2141V12.0275H89.5461C89.8661 12.0275 90.1141 11.9435 90.2901 11.7755C90.4661 11.5995 90.5541 11.3555 90.5541 11.0435C90.5541 10.7395 90.4661 10.5035 90.2901 10.3355C90.1141 10.1675 89.8661 10.0835 89.5461 10.0835Z" fill="black"/>
<path d="M95.5923 12.9995V7.03554H96.7563V11.2355L99.8283 7.03554H100.884V12.9995H99.7083V8.82354L96.6483 12.9995H95.5923ZM98.3283 5.97954C97.7683 5.97954 97.3043 5.83954 96.9363 5.55954C96.5683 5.27154 96.3523 4.85954 96.2883 4.32354H97.2963C97.3363 4.65154 97.4483 4.89154 97.6323 5.04354C97.8243 5.18754 98.0563 5.25954 98.3283 5.25954C98.6083 5.25954 98.8363 5.18754 99.0123 5.04354C99.1963 4.89154 99.3083 4.65154 99.3483 4.32354H100.368C100.304 4.85954 100.084 5.27154 99.7083 5.55954C99.3403 5.83954 98.8803 5.97954 98.3283 5.97954Z" fill="black"/>
<path d="M18.8917 27.1835H17.9917L15.3877 21.3515V27.9995H14.1877V19.4195H15.6757L18.4477 25.7315L21.2437 19.4195H22.7197V27.9995H21.5197V21.3515L18.8917 27.1835Z" fill="black"/>
<path d="M29.4302 26.2475L30.1382 27.0035C29.8262 27.3955 29.4542 27.6915 29.0222 27.8915C28.5982 28.0915 28.1342 28.1915 27.6302 28.1915C27.0062 28.1915 26.4582 28.0555 25.9862 27.7835C25.5222 27.5115 25.1582 27.1355 24.8942 26.6555C24.6302 26.1755 24.4982 25.6315 24.4982 25.0235C24.4982 24.4155 24.6262 23.8715 24.8822 23.3915C25.1382 22.9115 25.4902 22.5355 25.9382 22.2635C26.3862 21.9835 26.8902 21.8435 27.4502 21.8435C27.9942 21.8435 28.4742 21.9795 28.8902 22.2515C29.3062 22.5155 29.6302 22.8835 29.8622 23.3555C30.1022 23.8275 30.2222 24.3675 30.2222 24.9755V25.4075H25.7582C25.8302 25.9515 26.0342 26.3875 26.3702 26.7155C26.7062 27.0355 27.1462 27.1955 27.6902 27.1955C28.4102 27.1955 28.9902 26.8795 29.4302 26.2475ZM27.4382 22.8395C26.9902 22.8395 26.6142 22.9955 26.3102 23.3075C26.0142 23.6115 25.8342 24.0235 25.7702 24.5435H29.0102C28.9622 24.0155 28.7982 23.5995 28.5182 23.2955C28.2462 22.9915 27.8862 22.8395 27.4382 22.8395Z" fill="black"/>
<path d="M30.9802 29.5835V27.0035H31.4722C31.6802 27.0035 31.8282 26.9235 31.9162 26.7635C32.0042 26.6035 32.0722 26.2915 32.1202 25.8275L32.5162 22.0355H36.6442V27.0035H37.4602V29.5835H36.3322V27.9995H32.1202V29.5835H30.9802ZM33.2602 25.9115C33.2122 26.3915 33.1122 26.7555 32.9602 27.0035H35.4562V23.0195H33.5962L33.2602 25.9115Z" fill="black"/>
<path d="M38.8735 27.9995V22.0355H40.0375V26.2355L43.1095 22.0355H44.1655V27.9995H42.9895V23.8235L39.9295 27.9995H38.8735Z" fill="black"/>
<path d="M47.7611 28.1915C47.3371 28.1915 46.9611 28.1115 46.6331 27.9515C46.3051 27.7835 46.0491 27.5555 45.8651 27.2675C45.6891 26.9795 45.6011 26.6515 45.6011 26.2835C45.6011 25.6675 45.8371 25.1875 46.3091 24.8435C46.7811 24.4915 47.4251 24.3155 48.2411 24.3155H49.7411C49.7411 23.8595 49.6011 23.4955 49.3211 23.2235C49.0491 22.9515 48.6651 22.8155 48.1691 22.8155C47.5451 22.8155 46.9851 23.0795 46.4891 23.6075L45.7931 22.8635C46.4971 22.1835 47.3211 21.8435 48.2651 21.8435C48.7931 21.8435 49.2491 21.9475 49.6331 22.1555C50.0251 22.3555 50.3291 22.6395 50.5451 23.0075C50.7611 23.3675 50.8691 23.7915 50.8691 24.2795V27.9995H49.7771V27.2195C49.5611 27.5235 49.2771 27.7635 48.9251 27.9395C48.5811 28.1075 48.1931 28.1915 47.7611 28.1915ZM48.0011 27.2555C48.4091 27.2555 48.7651 27.1515 49.0691 26.9435C49.3811 26.7275 49.6051 26.4435 49.7411 26.0915V25.1675H48.3491C47.8691 25.1675 47.4931 25.2635 47.2211 25.4555C46.9571 25.6395 46.8251 25.8995 46.8251 26.2355C46.8251 26.5395 46.9291 26.7875 47.1371 26.9795C47.3531 27.1635 47.6411 27.2555 48.0011 27.2555Z" fill="black"/>
<path d="M53.8595 27.9995V23.0315H51.8795V22.0355H57.0275V23.0315H55.0475V27.9995H53.8595Z" fill="black"/>
<path d="M58.3501 27.9995V22.0355H59.5141V26.2355L62.5861 22.0355H63.6421V27.9995H62.4661V23.8235L59.4061 27.9995H58.3501Z" fill="black"/>
<path d="M65.5337 27.9995V22.0355H68.4017C69.0017 22.0355 69.4897 22.1755 69.8657 22.4555C70.2417 22.7355 70.4297 23.1235 70.4297 23.6195C70.4297 24.2035 70.1617 24.6195 69.6257 24.8675C69.9617 24.9955 70.2217 25.1835 70.4057 25.4315C70.5897 25.6715 70.6817 25.9515 70.6817 26.2715C70.6817 26.6075 70.5897 26.9075 70.4057 27.1715C70.2217 27.4275 69.9697 27.6315 69.6497 27.7835C69.3297 27.9275 68.9617 27.9995 68.5457 27.9995H65.5337ZM68.3057 22.9715H66.6737V24.4715H68.3057C68.5857 24.4715 68.8057 24.4075 68.9657 24.2795C69.1337 24.1515 69.2177 23.9635 69.2177 23.7155C69.2177 23.2195 68.9137 22.9715 68.3057 22.9715ZM68.4497 25.3475H66.6737V27.0635H68.4497C68.7777 27.0635 69.0297 26.9915 69.2057 26.8475C69.3897 26.6955 69.4817 26.4835 69.4817 26.2115C69.4817 25.9395 69.3897 25.7275 69.2057 25.5755C69.0297 25.4235 68.7777 25.3475 68.4497 25.3475Z" fill="black"/>
<path d="M72.1665 27.9995V22.0355H73.3665V24.3755H76.2105V22.0355H77.4105V27.9995H76.2105V25.3595H73.3665V27.9995H72.1665Z" fill="black"/>
<path d="M79.3032 27.9995V22.0355H80.5032V24.0995H81.8832C82.5392 24.0995 83.0632 24.2795 83.4552 24.6395C83.8552 24.9915 84.0552 25.4555 84.0552 26.0315C84.0552 26.4075 83.9632 26.7475 83.7792 27.0515C83.5952 27.3475 83.3392 27.5795 83.0112 27.7475C82.6832 27.9155 82.3072 27.9995 81.8832 27.9995H79.3032ZM84.7752 27.9995V22.0355H85.9752V27.9995H84.7752ZM81.8352 25.0835H80.5032V27.0275H81.8352C82.1552 27.0275 82.4032 26.9435 82.5792 26.7755C82.7552 26.5995 82.8432 26.3555 82.8432 26.0435C82.8432 25.7395 82.7552 25.5035 82.5792 25.3355C82.4032 25.1675 82.1552 25.0835 81.8352 25.0835Z" fill="black"/>
<path d="M87.8813 27.9995V22.0355H89.0453V26.2355L92.1173 22.0355H93.1733V27.9995H91.9973V23.8235L88.9373 27.9995H87.8813ZM90.6173 20.9795C90.0573 20.9795 89.5933 20.8395 89.2253 20.5595C88.8573 20.2715 88.6413 19.8595 88.5773 19.3235H89.5853C89.6253 19.6515 89.7373 19.8915 89.9213 20.0435C90.1133 20.1875 90.3453 20.2595 90.6173 20.2595C90.8973 20.2595 91.1253 20.1875 91.3013 20.0435C91.4853 19.8915 91.5973 19.6515 91.6373 19.3235H92.6573C92.5933 19.8595 92.3733 20.2715 91.9973 20.5595C91.6293 20.8395 91.1693 20.9795 90.6173 20.9795Z" fill="black"/>
<path d="M20.4877 45.0875V42.9995H14.1877V34.4195H15.4237V41.9195H19.5397V34.4195H20.7757V41.9195H21.6637V45.0875H20.4877Z" fill="black"/>
<path d="M27.6489 41.2475L28.3569 42.0035C28.0449 42.3955 27.6729 42.6915 27.2409 42.8915C26.8169 43.0915 26.3529 43.1915 25.8489 43.1915C25.2249 43.1915 24.6769 43.0555 24.2049 42.7835C23.7409 42.5115 23.3769 42.1355 23.1129 41.6555C22.8489 41.1755 22.7169 40.6315 22.7169 40.0235C22.7169 39.4155 22.8449 38.8715 23.1009 38.3915C23.3569 37.9115 23.7089 37.5355 24.1569 37.2635C24.6049 36.9835 25.1089 36.8435 25.6689 36.8435C26.2129 36.8435 26.6929 36.9795 27.1089 37.2515C27.5249 37.5155 27.8489 37.8835 28.0809 38.3555C28.3209 38.8275 28.4409 39.3675 28.4409 39.9755V40.4075H23.9769C24.0489 40.9515 24.2529 41.3875 24.5889 41.7155C24.9249 42.0355 25.3649 42.1955 25.9089 42.1955C26.6289 42.1955 27.2089 41.8795 27.6489 41.2475ZM25.6569 37.8395C25.2089 37.8395 24.8329 37.9955 24.5289 38.3075C24.2329 38.6115 24.0529 39.0235 23.9889 39.5435H27.2289C27.1809 39.0155 27.0169 38.5995 26.7369 38.2955C26.4649 37.9915 26.1049 37.8395 25.6569 37.8395Z" fill="black"/>
<path d="M30.0024 42.9995V37.0355H31.2024V39.3755H34.0464V37.0355H35.2464V42.9995H34.0464V40.3595H31.2024V42.9995H30.0024Z" fill="black"/>
<path d="M38.5431 42.9995V38.0315H36.5631V37.0355H41.7111V38.0315H39.7311V42.9995H38.5431Z" fill="black"/>
<path d="M44.2337 45.3275H43.0337V37.0355H44.2217V38.0555C44.4137 37.6875 44.6897 37.3955 45.0497 37.1795C45.4177 36.9555 45.8297 36.8435 46.2857 36.8435C46.8217 36.8435 47.2977 36.9795 47.7137 37.2515C48.1377 37.5235 48.4697 37.8995 48.7097 38.3795C48.9577 38.8595 49.0817 39.4075 49.0817 40.0235C49.0817 40.6395 48.9537 41.1875 48.6977 41.6675C48.4497 42.1475 48.1097 42.5235 47.6777 42.7955C47.2537 43.0595 46.7737 43.1915 46.2377 43.1915C45.7897 43.1915 45.3937 43.0995 45.0497 42.9155C44.7057 42.7315 44.4337 42.4835 44.2337 42.1715V45.3275ZM44.2337 40.1315V40.8995C44.3617 41.2755 44.5817 41.5835 44.8937 41.8235C45.2137 42.0555 45.5777 42.1715 45.9857 42.1715C46.3537 42.1715 46.6737 42.0795 46.9457 41.8955C47.2177 41.7115 47.4297 41.4595 47.5817 41.1395C47.7417 40.8115 47.8217 40.4395 47.8217 40.0235C47.8217 39.3915 47.6617 38.8755 47.3417 38.4755C47.0217 38.0675 46.5937 37.8635 46.0577 37.8635C45.7057 37.8635 45.3897 37.9595 45.1097 38.1515C44.8377 38.3435 44.6217 38.6115 44.4617 38.9555C44.3097 39.2915 44.2337 39.6835 44.2337 40.1315Z" fill="black"/>
<path fill-rule="evenodd" clip-rule="evenodd" d="M0.0253926 46.5591L0.0253906 0.861328L0.990836 0.861328L0.990838 46.5591L0.0253926 46.5591Z" fill="black"/>
</svg>
